<?xml version="1.0" encoding="UTF-8" standalone="no"?><svg width="137" height="109" viewBox="0 0 137 109" fill="none" xmlns="http://www.w3.org/2000/svg">
<rect x="111" y="4" width="22" height="101" rx="11" fill="url(#paint0_linear_103_3)"/>
<rect x="56.5" y="0.0695801" width="22" height="113" rx="11" transform="rotate(30 56.5 0.0695801)" fill="url(#paint1_linear_103_3)"/>
<rect x="82.7598" y="60.4233" width="22" height="43.3093" rx="11" transform="rotate(30 82.7598 60.4233)" fill="url(#paint2_linear_103_3)"/>
<rect x="117.605" y="0.0695801" width="22" height="66.0225" rx="11" transform="rotate(30 117.605 0.0695801)" fill="url(#paint3_linear_103_3)"/>
<rect x="68.3108" y="32.4619" width="22" height="75.5161" rx="11" transform="rotate(30 68.3108 32.4619)" fill="url(#paint4_linear_103_3)"/>
<rect x="87.053" width="22" height="33.1447" rx="11" transform="rotate(30 87.053 0)" fill="url(#paint5_linear_103_3)"/>
<defs>
<linearGradient id="paint0_linear_103_3" x1="122" y1="4" x2="122" y2="105" gradientUnits="userSpaceOnUse">
<stop stop-color="#ED5F6C"/>
<stop offset="1" stop-color="#21059F"/>
</linearGradient>
<linearGradient id="paint1_linear_103_3" x1="67.5" y1="0.0695801" x2="67.5" y2="113.07" gradientUnits="userSpaceOnUse">
<stop stop-color="#FF6767"/>
<stop offset="1" stop-color="#1700A2"/>
</linearGradient>
<linearGradient id="paint2_linear_103_3" x1="93.7598" y1="60.4233" x2="93.7598" y2="103.733" gradientUnits="userSpaceOnUse">
<stop stop-color="#FF6767"/>
<stop offset="1" stop-color="#1700A2"/>
</linearGradient>
<linearGradient id="paint3_linear_103_3" x1="128.605" y1="0.0695801" x2="128.605" y2="66.0921" gradientUnits="userSpaceOnUse">
<stop stop-color="#FF6767"/>
<stop offset="1" stop-color="#1700A2"/>
</linearGradient>
<linearGradient id="paint4_linear_103_3" x1="79.3108" y1="32.4619" x2="79.3108" y2="107.978" gradientUnits="userSpaceOnUse">
<stop stop-color="#FF6767"/>
<stop offset="1" stop-color="#1700A2"/>
</linearGradient>
<linearGradient id="paint5_linear_103_3" x1="98.053" y1="0" x2="98.053" y2="33.1447" gradientUnits="userSpaceOnUse">
<stop stop-color="#FF6767"/>
<stop offset="1" stop-color="#1700A2"/>
</linearGradient>
</defs>
</svg>
